<svg viewBox="0 0 16 16" xmlns="http://www.w3.org/2000/svg" shape-rendering="crispEdges">
  <!-- Decifrador: ciano + "wifi" tricolor no topo, vibe hacker/sistema -->
  <!-- Ondas wifi -->
  <rect x="6" y="0" width="4" height="1" fill="#00f0ff"/>
  <rect x="5" y="1" width="1" height="1" fill="#00f0ff"/>
  <rect x="10" y="1" width="1" height="1" fill="#00f0ff"/>
  <rect x="7" y="1" width="2" height="1" fill="#fff95e"/>
  <rect x="7" y="2" width="2" height="1" fill="#ff2e93"/>
  <rect x="7" y="3" width="2" height="1" fill="#00f0ff"/>
  <!-- Cabeça -->
  <rect x="4" y="4" width="8" height="1" fill="#7a1eab"/>
  <rect x="3" y="5" width="10" height="1" fill="#00f0ff"/>
  <rect x="3" y="6" width="10" height="1" fill="#00f0ff"/>
  <rect x="3" y="7" width="10" height="1" fill="#00f0ff"/>
  <!-- "Tela" no rosto (pixels alternados = display digital) -->
  <rect x="5" y="6" width="2" height="1" fill="#1a0633"/>
  <rect x="9" y="6" width="2" height="1" fill="#1a0633"/>
  <rect x="5" y="7" width="1" height="1" fill="#fff95e"/>
  <rect x="6" y="7" width="1" height="1" fill="#1a0633"/>
  <rect x="9" y="7" width="1" height="1" fill="#1a0633"/>
  <rect x="10" y="7" width="1" height="1" fill="#fff95e"/>
  <!-- Bochechas / LED -->
  <rect x="3" y="8" width="1" height="1" fill="#ff2e93"/>
  <rect x="12" y="8" width="1" height="1" fill="#ff2e93"/>
  <!-- Corpo (bytes em linhas) -->
  <rect x="4" y="8" width="8" height="1" fill="#0098b0"/>
  <rect x="4" y="9" width="8" height="1" fill="#00f0ff"/>
  <rect x="5" y="9" width="1" height="1" fill="#fff95e"/>
  <rect x="9" y="9" width="1" height="1" fill="#fff95e"/>
  <rect x="5" y="10" width="6" height="1" fill="#0098b0"/>
  <!-- Pernas -->
  <rect x="4" y="11" width="2" height="1" fill="#ff2e93"/>
  <rect x="10" y="11" width="2" height="1" fill="#ff2e93"/>
</svg>
